<svg width="35.000000" height="24.526001" viewBox="0 0 35 24.526" fill="none" xmlns="http://www.w3.org/2000/svg" xmlns:xlink="http://www.w3.org/1999/xlink">
	<desc>
			Created with Pixso.
	</desc>
	<defs/>
	<path id="Vector" d="M1.75 15.75L20.12 15.75C21.05 15.75 21.87 14.98 21.87 14L21.87 1.75C21.87 0.82 21.05 0 20.12 0L1.75 0C0.76 0 0 0.82 0 1.75L0 14C0 14.98 0.76 15.75 1.75 15.75ZM1.75 1.75L20.12 1.75L20.12 14L1.75 14L1.75 1.75ZM33.96 9.51L30.73 6.28C30.07 5.63 29.2 5.3 28.27 5.3L24.5 5.3C24 5.3 23.62 5.68 23.62 6.17L23.62 17.55L12.46 17.55C11.81 17 10.99 16.67 10.06 16.67C8.8 16.67 7.71 17.22 7 18.15C6.23 17.22 5.14 16.62 3.93 16.62C1.75 16.62 0 18.42 0 20.56C0 22.75 1.75 24.5 3.93 24.5C5.14 24.5 6.23 23.95 7 23.02C7.71 23.95 8.8 24.5 10.06 24.5C12.19 24.5 14 22.75 14 20.56C14 20.12 13.89 19.68 13.72 19.25L24.55 19.25C24.39 20.01 24.44 20.78 24.71 21.6C25.15 22.96 26.35 24.06 27.78 24.39C30.62 25.1 33.25 22.91 33.25 20.12C33.25 19.85 33.19 19.57 33.14 19.25L34.12 19.25C34.56 19.25 35 18.86 35 18.37L35 11.97C35 11.04 34.61 10.17 33.96 9.51ZM3.93 22.75C2.67 22.75 1.75 21.82 1.75 20.56C1.75 19.35 2.67 18.37 3.93 18.37C5.14 18.37 6.12 19.35 6.12 20.56C6.12 21.82 5.14 22.75 3.93 22.75ZM10.06 22.75C8.8 22.75 7.87 21.82 7.87 20.56C7.87 19.35 8.8 18.37 10.06 18.37C11.26 18.37 12.25 19.35 12.25 20.56C12.25 21.82 11.26 22.75 10.06 22.75ZM25.37 7L28.27 7C28.76 7 29.2 7.21 29.53 7.54L32.48 10.5L25.37 10.5L25.37 7ZM28.87 22.75C27.39 22.75 26.25 21.6 26.25 20.12C26.25 18.7 27.39 17.5 28.87 17.5C30.29 17.5 31.5 18.7 31.5 20.12C31.5 21.6 30.29 22.75 28.87 22.75ZM33.25 17.5L32.32 17.5C31.55 16.46 30.29 15.75 28.87 15.75C27.39 15.75 26.19 16.46 25.37 17.5L25.37 12.25L33.25 12.25L33.25 17.5ZM5.68 12.25L6.56 12.25C6.78 12.25 7 12.08 7 11.81L7 3.93C7 3.71 6.78 3.5 6.56 3.5L5.68 3.5C5.41 3.5 5.25 3.71 5.25 3.93L5.25 11.81C5.25 12.08 5.41 12.25 5.68 12.25ZM10.93 12.25L11.81 12.25C12.03 12.25 12.25 12.08 12.25 11.81L12.25 3.93C12.25 3.71 12.03 3.5 11.81 3.5L10.93 3.5C10.66 3.5 10.5 3.71 10.5 3.93L10.5 11.81C10.5 12.08 10.66 12.25 10.93 12.25ZM16.18 12.25L17.06 12.25C17.28 12.25 17.5 12.08 17.5 11.81L17.5 3.93C17.5 3.71 17.28 3.5 17.06 3.5L16.18 3.5C15.91 3.5 15.75 3.71 15.75 3.93L15.75 11.81C15.75 12.08 15.91 12.25 16.18 12.25Z" fill="#5C8EE6" fill-opacity="1.000000" fill-rule="evenodd"/>
</svg>
